<svg width="36" height="36" viewBox="0 0 36 36" fill="none" xmlns="http://www.w3.org/2000/svg">
<path d="M18 0.5C8.33594 0.5 0.5 8.33594 0.5 18C0.5 27.6641 8.33594 35.5 18 35.5C27.6641 35.5 35.5 27.6641 35.5 18C35.5 8.33594 27.6641 0.5 18 0.5ZM24.5234 25.25C22.9375 26.7109 20.7734 27.5703 18.1914 27.5703C14.4531 27.5703 11.2188 25.4258 9.64453 22.3008C8.99609 21.0078 8.625 19.5469 8.625 18C8.625 16.4531 8.99609 14.9922 9.64453 13.6992C11.2188 10.5703 14.4531 8.42578 18.1914 8.42578C20.7695 8.42578 22.9336 9.375 24.5938 10.918L21.8516 13.6641C20.8594 12.7148 19.5977 12.2344 18.1953 12.2344C15.7031 12.2344 13.5938 13.918 12.8398 16.1797C12.6484 16.7539 12.5391 17.3672 12.5391 18C12.5391 18.6328 12.6484 19.2461 12.8398 19.8203C13.5938 22.082 15.7031 23.7656 18.1914 23.7656C19.4805 23.7656 20.5742 23.4258 21.4297 22.8516C22.4453 22.1719 23.1172 21.1602 23.3398 19.9609H18.1914V16.2578H27.2031C27.3164 16.8867 27.375 17.5391 27.375 18.2148C27.375 21.1328 26.332 23.582 24.5234 25.25Z" fill="white"/>
</svg>
