<svg width="37" height="36" viewBox="0 0 37 36" fill="none" xmlns="http://www.w3.org/2000/svg">
<path d="M18.5002 0.719971C8.69153 0.719971 0.740234 8.45637 0.740234 18C0.740234 27.5436 8.69153 35.28 18.5002 35.28C28.3089 35.28 36.2602 27.5436 36.2602 18C36.2602 8.45637 28.3089 0.719971 18.5002 0.719971ZM25.3304 20.2158C25.3304 20.2158 26.9011 21.7242 27.2877 22.4244C27.2988 22.4388 27.3044 22.4532 27.3081 22.4604C27.4653 22.7178 27.5023 22.9176 27.4246 23.067C27.2951 23.3154 26.8511 23.4378 26.6994 23.4486H23.9244C23.732 23.4486 23.3287 23.4 22.8403 23.0724C22.4648 22.8168 22.0948 22.3974 21.734 21.9888C21.1957 21.3804 20.7295 20.8548 20.2596 20.8548C20.1999 20.8547 20.1406 20.8638 20.0838 20.8818C19.7286 20.9934 19.2735 21.4866 19.2735 22.8006C19.2735 23.211 18.9405 23.4468 18.7056 23.4468H17.4346C17.0017 23.4468 14.7466 23.2992 12.7486 21.249C10.3029 18.738 8.10138 13.7016 8.08288 13.6548C7.94413 13.329 8.23088 13.1544 8.54353 13.1544H11.3463C11.72 13.1544 11.8421 13.3758 11.9272 13.572C12.0271 13.8006 12.3934 14.7096 12.9946 15.732C13.9696 17.3988 14.5671 18.0756 15.0463 18.0756C15.1361 18.0745 15.2244 18.0523 15.3034 18.0108C15.9287 17.6724 15.8122 15.5034 15.7844 15.0534C15.7844 14.9688 15.7826 14.0832 15.4625 13.6584C15.2331 13.3506 14.8428 13.2336 14.606 13.1904C14.7018 13.0617 14.8281 12.9574 14.9741 12.8862C15.4033 12.6774 16.1766 12.6468 16.9444 12.6468H17.3717C18.2042 12.6576 18.4188 12.7098 18.7204 12.7836C19.3309 12.9258 19.3438 13.3092 19.2902 14.6214C19.2735 14.994 19.2569 15.4152 19.2569 15.912C19.2569 16.02 19.2513 16.1352 19.2513 16.2576C19.2328 16.9254 19.2106 17.6832 19.6953 17.9946C19.7586 18.0331 19.8316 18.0537 19.9062 18.054C20.0746 18.054 20.5815 18.054 21.9542 15.7626C22.3775 15.025 22.7454 14.2586 23.0549 13.4694C23.0827 13.4226 23.1641 13.2786 23.2603 13.2228C23.3313 13.1876 23.41 13.1696 23.4897 13.1706H26.7845C27.1434 13.1706 27.3895 13.2228 27.4357 13.3578C27.5171 13.572 27.4209 14.2254 25.9169 16.2072L25.2453 17.0694C23.8819 18.8082 23.8819 18.8964 25.3304 20.2158Z" fill="white"/>
</svg>
