<svg width="33" height="14" viewBox="0 0 33 14" fill="none" xmlns="http://www.w3.org/2000/svg">
<path d="M1.5 6.15C1.03056 6.15 0.649999 6.53056 0.65 7C0.650001 7.46944 1.03056 7.85 1.5 7.85L1.5 6.15ZM32.6011 7.60097C32.9331 7.26903 32.9331 6.73084 32.6011 6.39889L27.1918 0.989537C26.8598 0.657592 26.3216 0.657593 25.9897 0.98954C25.6577 1.32149 25.6577 1.85968 25.9897 2.19162L30.798 6.99994L25.9897 11.8083C25.6578 12.1402 25.6578 12.6784 25.9897 13.0104C26.3216 13.3423 26.8598 13.3423 27.1918 13.0104L32.6011 7.60097ZM1.5 7.85L32.0001 7.84993L32.0001 6.14993L1.5 6.15L1.5 7.85Z" fill="#1E242F"/>
</svg>
