<svg width="16" height="33" viewBox="0 0 16 33" fill="none" xmlns="http://www.w3.org/2000/svg">
<path d="M8.88863 31.4901C8.89363 32.0424 8.44999 32.4941 7.89773 32.4991C7.34547 32.5041 6.89371 32.0605 6.88871 31.5082L8.88863 31.4901ZM6.89898 0.299628C7.28595 -0.0944175 7.91909 -0.10015 8.31314 0.286821L14.7345 6.59289C15.1285 6.97986 15.1342 7.613 14.7473 8.00704C14.3603 8.40109 13.7272 8.40682 13.3331 8.01985L7.62527 2.41446L2.01988 8.12231C1.6329 8.51635 0.999765 8.52209 0.605721 8.13511C0.211676 7.74814 0.205942 7.115 0.592914 6.72096L6.89898 0.299628ZM6.88871 31.5082L6.6125 1.00936L8.61242 0.991247L8.88863 31.4901L6.88871 31.5082Z" fill="white"/>
</svg>
