<svg width="16" height="33" viewBox="0 0 16 33" fill="none" xmlns="http://www.w3.org/2000/svg">
<path d="M8.81249 1.00324C8.81475 0.45096 8.36887 0.00141542 7.81659 -0.000846107C7.26431 -0.00310758 6.81477 0.442771 6.81251 0.995051L8.81249 1.00324ZM6.97761 32.2032C7.36653 32.5953 7.99969 32.5979 8.39181 32.209L14.7818 25.8711C15.1739 25.4822 15.1765 24.849 14.7876 24.4569C14.3986 24.0648 13.7655 24.0622 13.3734 24.4511L7.6934 30.0848L2.05976 24.4048C1.67083 24.0127 1.03767 24.0101 0.645554 24.399C0.253434 24.7879 0.250841 25.4211 0.639763 25.8132L6.97761 32.2032ZM6.81251 0.995051L6.68762 31.4949L8.6876 31.5031L8.81249 1.00324L6.81251 0.995051Z" fill="white"/>
</svg>
