<svg width="17" height="25" viewBox="0 0 17 25" fill="none" xmlns="http://www.w3.org/2000/svg">
<path fill-rule="evenodd" clip-rule="evenodd" d="M3 5.5058C3 2.46891 5.46632 0 8.5 0C11.5337 0 14 2.46891 14 5.5058C13.9884 8.48472 11.6611 10.8957 8.69684 11H8.67368C8.63515 11 8.59674 10.9961 8.5583 10.9934C8.53541 10.9918 8.5111 10.9911 8.48591 10.9914C8.40257 10.9923 8.31874 10.999 8.23552 10.9943C5.2634 10.8288 3 8.4435 3 5.5058ZM2.37855 15.6598C5.77131 13.4467 11.2649 13.4467 14.6335 15.6598C16.1548 16.6593 16.9879 18.0157 17 19.4792C17 20.9546 16.1548 22.311 14.6335 23.3223C12.9432 24.4408 10.7216 25 8.5 25C6.27841 25 4.05682 24.4408 2.36648 23.3223C0.84517 22.3229 0 20.9665 0 19.503C0 18.0395 0.84517 16.6712 2.37855 15.6598Z" fill="url(#paint0_linear_1_289)"/>
<defs>
<linearGradient id="paint0_linear_1_289" x1="12.3012" y1="6.6" x2="-8.00008" y2="18.5617" gradientUnits="userSpaceOnUse">
<stop stop-color="#55FA83"/>
<stop offset="1" stop-color="#61C5FE"/>
</linearGradient>
</defs>
</svg>
