<svg width="25" height="25" viewBox="0 0 25 25" fill="none" xmlns="http://www.w3.org/2000/svg">
<path d="M16.9274 23.4376C17.9342 23.4376 18.7503 22.6214 18.7503 21.6147C18.7503 20.6079 17.9342 19.7917 16.9274 19.7917C15.9206 19.7917 15.1045 20.6079 15.1045 21.6147C15.1045 22.6214 15.9206 23.4376 16.9274 23.4376Z" fill="white"/>
<path d="M8.59342 23.4376C9.60019 23.4376 10.4163 22.6214 10.4163 21.6147C10.4163 20.6079 9.60019 19.7917 8.59342 19.7917C7.58666 19.7917 6.77051 20.6079 6.77051 21.6147C6.77051 22.6214 7.58666 23.4376 8.59342 23.4376Z" fill="white"/>
<path d="M5.04134 4.10409L4.83301 7.65617C4.79134 8.14575 5.17676 8.552 5.66634 8.552H21.6143C22.0518 8.552 22.4163 8.21866 22.4476 7.78116C22.583 5.93741 21.1768 3.43742 19.333 3.43742H6.55175C6.44758 2.97909 6.23925 2.54158 5.91633 2.177C5.40592 1.62491 4.67676 1.302 3.92676 1.302H2.08301C1.65592 1.302 1.30176 1.65617 1.30176 2.08325C1.30176 2.51034 1.65592 2.8645 2.08301 2.8645H3.89551C4.21843 2.8645 4.52051 2.99992 4.73926 3.22909C4.95801 3.46867 5.06217 3.78117 5.04134 4.10409Z" fill="white"/>
<path d="M21.365 10.1145H5.3858C4.9483 10.1145 4.59413 10.4478 4.55246 10.8749L4.17746 14.4062C4.03163 16.177 5.42747 17.7083 7.20872 17.7083H18.792C20.3545 17.7083 21.7296 16.427 21.8441 14.8645L22.1879 10.9999C22.2296 10.5208 21.8545 10.1145 21.365 10.1145Z" fill="white"/>
</svg>
