<svg width="32" height="32" viewBox="0 0 32 32" fill="none" xmlns="http://www.w3.org/2000/svg">
<path d="M16 5.33337C10.108 5.33337 5.33337 10.1094 5.33337 16C5.33337 21.8907 10.108 26.6667 16 26.6667C21.892 26.6667 26.6667 21.8907 26.6667 16C26.6667 10.1094 21.892 5.33337 16 5.33337ZM20.9427 19.0574C21.1927 19.3074 21.3332 19.6465 21.3332 20C21.3332 20.3536 21.1927 20.6927 20.9427 20.9427C20.6927 21.1927 20.3536 21.3332 20 21.3332C19.6465 21.3332 19.3074 21.1927 19.0574 20.9427L16 17.8854L12.9427 20.9427C12.8192 21.067 12.6723 21.1656 12.5105 21.2328C12.3487 21.3001 12.1753 21.3348 12 21.3348C11.8248 21.3348 11.6513 21.3001 11.4896 21.2328C11.3278 21.1656 11.1809 21.067 11.0574 20.9427C10.9334 20.819 10.8351 20.6721 10.768 20.5103C10.701 20.3485 10.6664 20.1752 10.6664 20C10.6664 19.8249 10.701 19.6515 10.768 19.4898C10.8351 19.328 10.9334 19.1811 11.0574 19.0574L14.1147 16L11.0574 12.9427C10.8074 12.6927 10.6669 12.3536 10.6669 12C10.6669 11.6465 10.8074 11.3074 11.0574 11.0574C11.3074 10.8074 11.6465 10.6669 12 10.6669C12.3536 10.6669 12.6927 10.8074 12.9427 11.0574L16 14.1147L19.0574 11.0574C19.3074 10.8074 19.6465 10.6669 20 10.6669C20.3536 10.6669 20.6927 10.8074 20.9427 11.0574C21.1927 11.3074 21.3332 11.6465 21.3332 12C21.3332 12.3536 21.1927 12.6927 20.9427 12.9427L17.8854 16L20.9427 19.0574Z" fill="white"/>
</svg>
