<svg width="26" height="26" viewBox="0 0 26 26" fill="none" xmlns="http://www.w3.org/2000/svg">
<path d="M8.26313 3.25C8.43122 2.77456 8.74263 2.36296 9.15445 2.07192C9.56627 1.78088 10.0582 1.62474 10.5625 1.625H15.4375C15.9418 1.62474 16.4337 1.78088 16.8455 2.07192C17.2574 2.36296 17.5688 2.77456 17.7369 3.25H18.6875C19.334 3.25 19.954 3.50681 20.4111 3.96393C20.8682 4.42105 21.125 5.04104 21.125 5.6875V21.9375C21.125 22.584 20.8682 23.204 20.4111 23.6611C19.954 24.1182 19.334 24.375 18.6875 24.375H7.3125C6.66603 24.375 6.04605 24.1182 5.58893 23.6611C5.13181 23.204 4.875 22.584 4.875 21.9375V5.6875C4.875 5.04104 5.13181 4.42105 5.58893 3.96393C6.04605 3.50681 6.66603 3.25 7.3125 3.25H8.26313ZM10.5625 3.25C10.347 3.25 10.1403 3.3356 9.98798 3.48798C9.8356 3.64035 9.75 3.84701 9.75 4.0625C9.75 4.27799 9.8356 4.48465 9.98798 4.63702C10.1403 4.7894 10.347 4.875 10.5625 4.875H15.4375C15.653 4.875 15.8597 4.7894 16.012 4.63702C16.1644 4.48465 16.25 4.27799 16.25 4.0625C16.25 3.84701 16.1644 3.64035 16.012 3.48798C15.8597 3.3356 15.653 3.25 15.4375 3.25H10.5625ZM11.375 12.1875C11.375 12.403 11.4606 12.6097 11.613 12.762C11.7653 12.9144 11.972 13 12.1875 13H17.0625C17.278 13 17.4847 12.9144 17.637 12.762C17.7894 12.6097 17.875 12.403 17.875 12.1875C17.875 11.972 17.7894 11.7653 17.637 11.613C17.4847 11.4606 17.278 11.375 17.0625 11.375H12.1875C11.972 11.375 11.7653 11.4606 11.613 11.613C11.4606 11.7653 11.375 11.972 11.375 12.1875ZM11.375 17.0625C11.375 17.278 11.4606 17.4847 11.613 17.637C11.7653 17.7894 11.972 17.875 12.1875 17.875H17.0625C17.278 17.875 17.4847 17.7894 17.637 17.637C17.7894 17.4847 17.875 17.278 17.875 17.0625C17.875 16.847 17.7894 16.6403 17.637 16.488C17.4847 16.3356 17.278 16.25 17.0625 16.25H12.1875C11.972 16.25 11.7653 16.3356 11.613 16.488C11.4606 16.6403 11.375 16.847 11.375 17.0625ZM8.9375 13C9.15299 13 9.35965 12.9144 9.51202 12.762C9.6644 12.6097 9.75 12.403 9.75 12.1875C9.75 11.972 9.6644 11.7653 9.51202 11.613C9.35965 11.4606 9.15299 11.375 8.9375 11.375C8.72201 11.375 8.51535 11.4606 8.36298 11.613C8.2106 11.7653 8.125 11.972 8.125 12.1875C8.125 12.403 8.2106 12.6097 8.36298 12.762C8.51535 12.9144 8.72201 13 8.9375 13V13ZM8.9375 17.875C9.15299 17.875 9.35965 17.7894 9.51202 17.637C9.6644 17.4847 9.75 17.278 9.75 17.0625C9.75 16.847 9.6644 16.6403 9.51202 16.488C9.35965 16.3356 9.15299 16.25 8.9375 16.25C8.72201 16.25 8.51535 16.3356 8.36298 16.488C8.2106 16.6403 8.125 16.847 8.125 17.0625C8.125 17.278 8.2106 17.4847 8.36298 17.637C8.51535 17.7894 8.72201 17.875 8.9375 17.875V17.875Z" fill="#2BEA60"/>
</svg>
