<svg width="27" height="27" viewBox="0 0 27 27" fill="none" xmlns="http://www.w3.org/2000/svg">
<path d="M13.5 2.25C19.7134 2.25 24.75 7.28775 24.75 13.5C24.75 19.7122 19.7134 24.75 13.5 24.75C7.28662 24.75 2.25 19.7122 2.25 13.5C2.25 7.28775 7.28662 2.25 13.5 2.25ZM13.5 17.4375C13.2016 17.4375 12.9155 17.556 12.7045 17.767C12.4935 17.978 12.375 18.2641 12.375 18.5625C12.375 18.8609 12.4935 19.147 12.7045 19.358C12.9155 19.569 13.2016 19.6875 13.5 19.6875C13.7984 19.6875 14.0845 19.569 14.2955 19.358C14.5065 19.147 14.625 18.8609 14.625 18.5625C14.625 18.2641 14.5065 17.978 14.2955 17.767C14.0845 17.556 13.7984 17.4375 13.5 17.4375ZM13.5 7.59375C12.6795 7.59375 11.8926 7.9197 11.3124 8.49989C10.7322 9.08008 10.4062 9.86699 10.4062 10.6875C10.4063 10.9013 10.4875 11.1071 10.6335 11.2633C10.7794 11.4195 10.9792 11.5145 11.1925 11.529C11.4058 11.5436 11.6166 11.4767 11.7825 11.3418C11.9483 11.2069 12.0567 11.014 12.0859 10.8022L12.0937 10.6875C12.0937 10.3145 12.2419 9.95685 12.5056 9.69313C12.7694 9.42941 13.127 9.28125 13.5 9.28125C13.873 9.28125 14.2306 9.42941 14.4944 9.69313C14.7581 9.95685 14.9062 10.3145 14.9062 10.6875C14.9062 11.2939 14.7544 11.5931 14.1806 12.186L14.0287 12.3412C13.041 13.329 12.6562 13.9691 12.6562 15.1875C12.6562 15.4113 12.7451 15.6259 12.9034 15.7841C13.0616 15.9424 13.2762 16.0312 13.5 16.0312C13.7238 16.0312 13.9384 15.9424 14.0966 15.7841C14.2549 15.6259 14.3437 15.4113 14.3437 15.1875C14.3437 14.5811 14.4956 14.2819 15.0694 13.689L15.2212 13.5337C16.209 12.546 16.5937 11.9059 16.5937 10.6875C16.5937 9.86699 16.2678 9.08008 15.6876 8.49989C15.1074 7.9197 14.3205 7.59375 13.5 7.59375Z" fill="#2BEA60"/>
</svg>
