<svg width="30" height="30" viewBox="0 0 30 30" fill="none" xmlns="http://www.w3.org/2000/svg">
<path d="M15 19.125C17.41 19.125 19.3636 17.2782 19.3636 15V8.125C19.3636 5.8468 17.41 4 15 4C12.59 4 10.6364 5.8468 10.6364 8.125V15C10.6364 17.2782 12.59 19.125 15 19.125ZM22.2727 12.25H21.5455C21.1436 12.25 20.8182 12.5577 20.8182 12.9375V15C20.8182 18.2141 17.8868 20.793 14.4186 20.4734C11.3959 20.1945 9.18182 17.6258 9.18182 14.7551V12.9375C9.18182 12.5577 8.85636 12.25 8.45455 12.25H7.72727C7.32545 12.25 7 12.5577 7 12.9375V14.6631C7 18.5148 9.90773 21.9485 13.9091 22.4701V23.9375H11.3636C10.9618 23.9375 10.6364 24.2452 10.6364 24.625V25.3125C10.6364 25.6923 10.9618 26 11.3636 26H18.6364C19.0382 26 19.3636 25.6923 19.3636 25.3125V24.625C19.3636 24.2452 19.0382 23.9375 18.6364 23.9375H16.0909V22.4864C19.9868 21.9811 23 18.8199 23 15V12.9375C23 12.5577 22.6745 12.25 22.2727 12.25Z" fill="#2BEA60"/>
</svg>
