<svg width="27" height="27" viewBox="0 0 27 27" fill="none" xmlns="http://www.w3.org/2000/svg">
<path d="M25 13.5C25 16.55 23.7884 19.4751 21.6317 21.6317C19.4751 23.7884 16.55 25 13.5 25C10.45 25 7.52494 23.7884 5.36827 21.6317C3.2116 19.4751 2 16.55 2 13.5C2 10.45 3.2116 7.52494 5.36827 5.36827C7.52494 3.2116 10.45 2 13.5 2C16.55 2 19.4751 3.2116 21.6317 5.36827C23.7884 7.52494 25 10.45 25 13.5ZM13.5 7.75C13.3183 7.7501 13.1387 7.78826 12.9726 7.86202C12.8066 7.93578 12.6578 8.0435 12.5359 8.17825C12.4141 8.31299 12.3217 8.47178 12.265 8.64436C12.2082 8.81695 12.1882 8.99952 12.2063 9.18031L12.7094 14.2216C12.7263 14.4197 12.8169 14.6042 12.9633 14.7386C13.1097 14.873 13.3012 14.9476 13.5 14.9476C13.6988 14.9476 13.8903 14.873 14.0367 14.7386C14.1831 14.6042 14.2737 14.4197 14.2906 14.2216L14.7937 9.18031C14.8118 8.99952 14.7918 8.81695 14.735 8.64436C14.6783 8.47178 14.5859 8.31299 14.4641 8.17825C14.3422 8.0435 14.1934 7.93578 14.0274 7.86202C13.8613 7.78826 13.6817 7.7501 13.5 7.75ZM13.5029 16.375C13.1216 16.375 12.756 16.5265 12.4864 16.796C12.2168 17.0656 12.0654 17.4313 12.0654 17.8125C12.0654 18.1937 12.2168 18.5594 12.4864 18.829C12.756 19.0985 13.1216 19.25 13.5029 19.25C13.8841 19.25 14.2498 19.0985 14.5193 18.829C14.7889 18.5594 14.9404 18.1937 14.9404 17.8125C14.9404 17.4313 14.7889 17.0656 14.5193 16.796C14.2498 16.5265 13.8841 16.375 13.5029 16.375Z" fill="#2BEA60"/>
</svg>
