<svg width="23" height="23" viewBox="0 0 23 23" fill="none" xmlns="http://www.w3.org/2000/svg">
<path d="M11.5 0.25C17.7134 0.25 22.75 5.28775 22.75 11.5C22.75 17.7122 17.7134 22.75 11.5 22.75C5.28662 22.75 0.25 17.7122 0.25 11.5C0.25 5.28775 5.28662 0.25 11.5 0.25ZM11.5 15.4375C11.2016 15.4375 10.9155 15.556 10.7045 15.767C10.4935 15.978 10.375 16.2641 10.375 16.5625C10.375 16.8609 10.4935 17.147 10.7045 17.358C10.9155 17.569 11.2016 17.6875 11.5 17.6875C11.7984 17.6875 12.0845 17.569 12.2955 17.358C12.5065 17.147 12.625 16.8609 12.625 16.5625C12.625 16.2641 12.5065 15.978 12.2955 15.767C12.0845 15.556 11.7984 15.4375 11.5 15.4375ZM11.5 5.59375C10.6795 5.59375 9.89258 5.9197 9.31239 6.49989C8.7322 7.08008 8.40625 7.86699 8.40625 8.6875C8.40631 8.90128 8.48752 9.10706 8.63347 9.26326C8.77941 9.41947 8.97921 9.51446 9.19249 9.52903C9.40577 9.5436 9.61663 9.47667 9.78246 9.34176C9.94829 9.20686 10.0567 9.01403 10.0859 8.80225L10.0937 8.6875C10.0937 8.31454 10.2419 7.95685 10.5056 7.69313C10.7694 7.42941 11.127 7.28125 11.5 7.28125C11.873 7.28125 12.2306 7.42941 12.4944 7.69313C12.7581 7.95685 12.9062 8.31454 12.9062 8.6875C12.9062 9.29387 12.7544 9.59312 12.1806 10.186L12.0287 10.3412C11.041 11.329 10.6562 11.9691 10.6562 13.1875C10.6562 13.4113 10.7451 13.6259 10.9034 13.7841C11.0616 13.9424 11.2762 14.0312 11.5 14.0312C11.7238 14.0312 11.9384 13.9424 12.0966 13.7841C12.2549 13.6259 12.3437 13.4113 12.3437 13.1875C12.3437 12.5811 12.4956 12.2819 13.0694 11.689L13.2212 11.5337C14.209 10.546 14.5937 9.90587 14.5937 8.6875C14.5937 7.86699 14.2678 7.08008 13.6876 6.49989C13.1074 5.9197 12.3205 5.59375 11.5 5.59375Z" fill="white"/>
</svg>
