<svg width="27" height="27" viewBox="0 0 27 27" fill="none" xmlns="http://www.w3.org/2000/svg">
<path d="M13.4887 2.25C7.27875 2.25 2.25 7.29 2.25 13.5C2.25 19.71 7.27875 24.75 13.4887 24.75C19.71 24.75 24.75 19.71 24.75 13.5C24.75 7.29 19.71 2.25 13.4887 2.25ZM18 18C17.8959 18.1043 17.7723 18.187 17.6362 18.2435C17.5001 18.2999 17.3542 18.329 17.2069 18.329C17.0595 18.329 16.9136 18.2999 16.7775 18.2435C16.6415 18.187 16.5178 18.1043 16.4137 18L12.7125 14.2987C12.6062 14.1946 12.5216 14.0703 12.4637 13.9332C12.4058 13.7961 12.3756 13.6488 12.375 13.5V9C12.375 8.38125 12.8813 7.875 13.5 7.875C14.1187 7.875 14.625 8.38125 14.625 9V13.0387L18 16.4137C18.4387 16.8525 18.4387 17.5612 18 18Z" fill="#2BEA60"/>
</svg>
