<svg width="35" height="35" viewBox="0 0 35 35" fill="none" xmlns="http://www.w3.org/2000/svg">
<g clip-path="url(#clip0_87_1029)">
<path d="M35.0005 17.6072C35.0005 7.88155 27.1648 -0.00219727 17.5005 -0.00219727C7.83172 -9.76562e-06 -0.00390625 7.88155 -0.00390625 17.6094C-0.00390625 26.3966 6.39672 33.6809 14.7617 35.0022V22.6975H10.3211V17.6094H14.7661V13.7266C14.7661 9.31437 17.3802 6.87749 21.3767 6.87749C23.293 6.87749 25.2945 7.22093 25.2945 7.22093V11.5522H23.0873C20.9152 11.5522 20.237 12.9106 20.237 14.3041V17.6072H25.0889L24.3145 22.6953H20.2348V35C28.5998 33.6787 35.0005 26.3944 35.0005 17.6072Z" fill="white"/>
</g>
<defs>
<clipPath id="clip0_87_1029">
<rect width="35" height="35" fill="white"/>
</clipPath>
</defs>
</svg>
