<svg width="44" height="44" viewBox="0 0 44 44" fill="none" xmlns="http://www.w3.org/2000/svg">
<path fill-rule="evenodd" clip-rule="evenodd" d="M21.8333 43.6667C9.78133 43.6667 0 33.8635 0 21.8333C0 9.78133 9.78133 0 21.8333 0C33.8635 0 43.6667 9.78133 43.6667 21.8333C43.6667 33.8635 33.8635 43.6667 21.8333 43.6667ZM30.5663 17.5103C29.9113 16.8771 28.8852 16.8771 28.252 17.5321L21.833 23.9729L15.414 17.5321C14.7808 16.8771 13.7328 16.8771 13.0996 17.5103C12.4446 18.1653 12.4446 19.1914 13.0996 19.8246L20.6758 27.4444C20.9815 27.7501 21.3963 27.9248 21.833 27.9248C22.2696 27.9248 22.6845 27.7501 22.9902 27.4444L30.5663 19.8246C30.8938 19.5189 31.0466 19.1041 31.0466 18.6893C31.0466 18.2526 30.8938 17.8378 30.5663 17.5103Z" fill="url(#paint0_linear_18_3391)"/>
<defs>
<linearGradient id="paint0_linear_18_3391" x1="31.5973" y1="11.528" x2="-8.52738" y2="46.2954" gradientUnits="userSpaceOnUse">
<stop stop-color="#55FA83"/>
<stop offset="1" stop-color="#61C5FE"/>
</linearGradient>
</defs>
</svg>
