<svg width="19" height="20" viewBox="0 0 19 20" fill="none" xmlns="http://www.w3.org/2000/svg">
<path d="M0.273249 17.4401C-0.106116 17.8414 -0.0882743 18.4743 0.313099 18.8537C0.714473 19.2331 1.34739 19.2152 1.72675 18.8139L0.273249 17.4401ZM17.9423 1.23113C17.9268 0.679066 17.4666 0.244144 16.9145 0.259706L7.91811 0.513317C7.36605 0.528879 6.93113 0.989033 6.94669 1.5411C6.96225 2.09316 7.42241 2.52809 7.97447 2.51252L15.9713 2.28709L16.1967 10.2839C16.2123 10.836 16.6724 11.2709 17.2245 11.2553C17.7766 11.2398 18.2115 10.7796 18.1959 10.2276L17.9423 1.23113ZM1.72675 18.8139L17.6695 1.94621L16.216 0.57241L0.273249 17.4401L1.72675 18.8139Z" fill="white"/>
</svg>
