<svg width="27" height="27" viewBox="0 0 27 27" fill="none" xmlns="http://www.w3.org/2000/svg">
<path fill-rule="evenodd" clip-rule="evenodd" d="M11.4052 2.04186C11.9092 1.8907 12.4414 1.85943 12.9595 1.95054C13.4777 2.04166 13.9673 2.25264 14.3894 2.56665C14.8115 2.88065 15.1544 3.28899 15.3906 3.75905C15.6268 4.22912 15.7499 4.7479 15.75 5.27398V21.726C15.7499 22.2521 15.6268 22.7708 15.3906 23.2409C15.1544 23.711 14.8115 24.1193 14.3894 24.4333C13.9673 24.7473 13.4777 24.9583 12.9595 25.0494C12.4414 25.1405 11.9092 25.1093 11.4052 24.9581L4.65525 22.9331C3.96011 22.7246 3.35071 22.2975 2.91744 21.7153C2.48417 21.1331 2.25012 20.4267 2.25 19.701V7.29898C2.25012 6.57324 2.48417 5.86687 2.91744 5.28465C3.35071 4.70244 3.96011 4.27539 4.65525 4.06686L11.4052 2.04186ZM16.875 4.49998C16.875 4.20161 16.9935 3.91547 17.2045 3.70449C17.4155 3.49351 17.7016 3.37498 18 3.37498H21.375C22.2701 3.37498 23.1286 3.73056 23.7615 4.3635C24.3944 4.99643 24.75 5.85488 24.75 6.74998V7.87498C24.75 8.17335 24.6315 8.4595 24.4205 8.67048C24.2095 8.88146 23.9234 8.99998 23.625 8.99998C23.3266 8.99998 23.0405 8.88146 22.8295 8.67048C22.6185 8.4595 22.5 8.17335 22.5 7.87498V6.74998C22.5 6.45161 22.3815 6.16547 22.1705 5.95449C21.9595 5.74351 21.6734 5.62498 21.375 5.62498H18C17.7016 5.62498 17.4155 5.50646 17.2045 5.29548C16.9935 5.0845 16.875 4.79835 16.875 4.49998ZM23.625 18C23.9234 18 24.2095 18.1185 24.4205 18.3295C24.6315 18.5405 24.75 18.8266 24.75 19.125V20.25C24.75 21.1451 24.3944 22.0035 23.7615 22.6365C23.1286 23.2694 22.2701 23.625 21.375 23.625H18C17.7016 23.625 17.4155 23.5065 17.2045 23.2955C16.9935 23.0845 16.875 22.7984 16.875 22.5C16.875 22.2016 16.9935 21.9155 17.2045 21.7045C17.4155 21.4935 17.7016 21.375 18 21.375H21.375C21.6734 21.375 21.9595 21.2565 22.1705 21.0455C22.3815 20.8345 22.5 20.5484 22.5 20.25V19.125C22.5 18.8266 22.6185 18.5405 22.8295 18.3295C23.0405 18.1185 23.3266 18 23.625 18ZM10.125 12.375C9.82663 12.375 9.54048 12.4935 9.3295 12.7045C9.11853 12.9155 9 13.2016 9 13.5C9 13.7984 9.11853 14.0845 9.3295 14.2955C9.54048 14.5065 9.82663 14.625 10.125 14.625H10.1261C10.4245 14.625 10.7106 14.5065 10.9216 14.2955C11.1326 14.0845 11.2511 13.7984 11.2511 13.5C11.2511 13.2016 11.1326 12.9155 10.9216 12.7045C10.7106 12.4935 10.4245 12.375 10.1261 12.375H10.125Z" fill="#2BEA60"/>
<path d="M23.625 13.5L21.375 15.75M18 13.5H23.625H18ZM23.625 13.5L21.375 11.25L23.625 13.5Z" stroke="#2BEA60" stroke-width="2" stroke-linecap="round" stroke-linejoin="round"/>
</svg>
