<svg width="25" height="25" viewBox="0 0 25 25" fill="none" xmlns="http://www.w3.org/2000/svg">
<path d="M12.5 1C9.46632 1 7 3.46891 7 6.5058C7 9.48472 9.32737 11.8957 12.3611 12C12.4537 11.9884 12.5463 11.9884 12.6158 12C12.6389 12 12.6505 12 12.6737 12C12.6853 12 12.6853 12 12.6968 12C15.6611 11.8957 17.9884 9.48472 18 6.5058C18 3.46891 15.5337 1 12.5 1Z" fill="#FFF5F4"/>
<path d="M18.6335 15.6598C15.2649 13.4467 9.77131 13.4467 6.37855 15.6598C4.84517 16.6712 4 18.0395 4 19.503C4 20.9665 4.84517 22.3229 6.36648 23.3223C8.05682 24.4408 10.2784 25 12.5 25C14.7216 25 16.9432 24.4408 18.6335 23.3223C20.1548 22.311 21 20.9546 21 19.4792C20.9879 18.0157 20.1548 16.6593 18.6335 15.6598Z" fill="white"/>
</svg>
