<svg width="22" height="22" viewBox="0 0 22 22" fill="none" xmlns="http://www.w3.org/2000/svg">
<path d="M11 0.5C5.20156 0.5 0.5 5.20156 0.5 11C0.5 16.7984 5.20156 21.5 11 21.5C16.7984 21.5 21.5 16.7984 21.5 11C21.5 5.20156 16.7984 0.5 11 0.5ZM14.9141 15.35C13.9625 16.2266 12.6641 16.7422 11.1148 16.7422C8.87188 16.7422 6.93125 15.4555 5.98672 13.5805C5.59766 12.8047 5.375 11.9281 5.375 11C5.375 10.0719 5.59766 9.19531 5.98672 8.41953C6.93125 6.54219 8.87188 5.25547 11.1148 5.25547C12.6617 5.25547 13.9602 5.825 14.9562 6.75078L13.3109 8.39844C12.7156 7.82891 11.9586 7.54062 11.1172 7.54062C9.62187 7.54062 8.35625 8.55078 7.90391 9.90781C7.78906 10.2523 7.72344 10.6203 7.72344 11C7.72344 11.3797 7.78906 11.7477 7.90391 12.0922C8.35625 13.4492 9.62188 14.4594 11.1148 14.4594C11.8883 14.4594 12.5445 14.2555 13.0578 13.9109C13.6672 13.5031 14.0703 12.8961 14.2039 12.1766H11.1148V9.95469H16.5219C16.5898 10.332 16.625 10.7234 16.625 11.1289C16.625 12.8797 15.9992 14.3492 14.9141 15.35Z" fill="#2BEA60"/>
</svg>
