<svg width="22" height="22" viewBox="0 0 22 22" fill="none" xmlns="http://www.w3.org/2000/svg">
<path d="M10.9997 0.333334C5.10767 0.333334 0.333008 5.10933 0.333008 11C0.333008 16.8907 5.10767 21.6667 10.9997 21.6667C16.8917 21.6667 21.6663 16.8907 21.6663 11C21.6663 5.10933 16.8917 0.333334 10.9997 0.333334ZM15.9423 14.0573C16.1924 14.3073 16.3328 14.6464 16.3328 15C16.3328 15.3536 16.1924 15.6927 15.9423 15.9427C15.6923 16.1927 15.3532 16.3331 14.9997 16.3331C14.6461 16.3331 14.307 16.1927 14.057 15.9427L10.9997 12.8853L7.94234 15.9427C7.8188 16.0669 7.67192 16.1655 7.51014 16.2328C7.34837 16.3001 7.17488 16.3347 6.99967 16.3347C6.82446 16.3347 6.65098 16.3001 6.4892 16.2328C6.32743 16.1655 6.18055 16.0669 6.05701 15.9427C5.93308 15.8189 5.83476 15.672 5.76768 15.5103C5.7006 15.3485 5.66607 15.1751 5.66607 15C5.66607 14.8249 5.7006 14.6515 5.76768 14.4897C5.83476 14.328 5.93308 14.1811 6.05701 14.0573L9.11434 11L6.05701 7.94267C5.807 7.69266 5.66654 7.35357 5.66654 7C5.66654 6.64643 5.807 6.30734 6.05701 6.05733C6.30702 5.80732 6.64611 5.66687 6.99967 5.66687C7.35324 5.66687 7.69233 5.80732 7.94234 6.05733L10.9997 9.11467L14.057 6.05733C14.307 5.80732 14.6461 5.66687 14.9997 5.66687C15.3532 5.66687 15.6923 5.80732 15.9423 6.05733C16.1924 6.30734 16.3328 6.64643 16.3328 7C16.3328 7.35357 16.1924 7.69266 15.9423 7.94267L12.885 11L15.9423 14.0573Z" fill="white"/>
</svg>
