<svg width="21" height="21" viewBox="0 0 21 21" fill="none" xmlns="http://www.w3.org/2000/svg">
<g clip-path="url(#clip0_82_1085)">
<path d="M20.9997 10.5643C20.9997 4.72894 16.2983 -0.00131226 10.4997 -0.00131226C4.69844 2.44239e-07 -0.00292969 4.72894 -0.00292969 10.5656C-0.00292969 15.8379 3.83745 20.2086 8.85644 21.0013V13.6185H6.19207V10.5656H8.85907V8.23594C8.85907 5.58863 10.4275 4.1265 12.8254 4.1265C13.9752 4.1265 15.1761 4.33256 15.1761 4.33256V6.93131H13.8518C12.5485 6.93131 12.1416 7.74638 12.1416 8.58244V10.5643H15.0528L14.5881 13.6172H12.1403V21C17.1593 20.2072 20.9997 15.8366 20.9997 10.5643Z" fill="#2BEA60"/>
</g>
<defs>
<clipPath id="clip0_82_1085">
<rect width="21" height="21" fill="white"/>
</clipPath>
</defs>
</svg>
