<svg width="22" height="22" viewBox="0 0 22 22" fill="none" xmlns="http://www.w3.org/2000/svg">
<path d="M11.0004 0.440002C5.16823 0.440002 0.44043 5.1678 0.44043 11C0.44043 16.8322 5.16823 21.56 11.0004 21.56C16.8326 21.56 21.5604 16.8322 21.5604 11C21.5604 5.1678 16.8326 0.440002 11.0004 0.440002ZM15.0616 12.3541C15.0616 12.3541 15.9955 13.2759 16.2254 13.7038C16.232 13.7126 16.2353 13.7214 16.2375 13.7258C16.331 13.8831 16.353 14.0052 16.3068 14.0965C16.2298 14.2483 15.9658 14.3231 15.8756 14.3297H14.2256C14.1112 14.3297 13.8714 14.3 13.581 14.0998C13.3577 13.9436 13.1377 13.6873 12.9232 13.4376C12.6031 13.0658 12.3259 12.7446 12.0465 12.7446C12.011 12.7445 11.9758 12.7501 11.942 12.7611C11.7308 12.8293 11.4602 13.1307 11.4602 13.9337C11.4602 14.1845 11.2622 14.3286 11.1225 14.3286H10.3668C10.1094 14.3286 8.76853 14.2384 7.58053 12.9855C6.12633 11.451 4.81733 8.3732 4.80633 8.3446C4.72383 8.1455 4.89433 8.0388 5.08023 8.0388H6.74673C6.96893 8.0388 7.04153 8.1741 7.09213 8.294C7.15153 8.4337 7.36933 8.9892 7.72683 9.614C8.30653 10.6326 8.66183 11.0462 8.94673 11.0462C9.00015 11.0456 9.05262 11.032 9.09963 11.0066C9.47143 10.7998 9.40213 9.4743 9.38563 9.1993C9.38563 9.1476 9.38453 8.6064 9.19423 8.3468C9.05783 8.1587 8.82573 8.0872 8.68493 8.0608C8.74192 7.98216 8.817 7.9184 8.90383 7.8749C9.15903 7.7473 9.61883 7.7286 10.0753 7.7286H10.3294C10.8244 7.7352 10.952 7.7671 11.1313 7.8122C11.4943 7.8991 11.502 8.1334 11.4701 8.9353C11.4602 9.163 11.4503 9.4204 11.4503 9.724C11.4503 9.79 11.447 9.8604 11.447 9.9352C11.436 10.3433 11.4228 10.8064 11.711 10.9967C11.7486 11.0203 11.7921 11.0328 11.8364 11.033C11.9365 11.033 12.2379 11.033 13.0541 9.6327C13.3058 9.18199 13.5246 8.71363 13.7086 8.2313C13.7251 8.2027 13.7735 8.1147 13.8307 8.0806C13.8729 8.05908 13.9198 8.04813 13.9671 8.0487H15.9262C16.1396 8.0487 16.2859 8.0806 16.3134 8.1631C16.3618 8.294 16.3046 8.6933 15.4103 9.9044L15.011 10.4313C14.2003 11.4939 14.2003 11.5478 15.0616 12.3541Z" fill="#2BEA60"/>
</svg>
